Coordinates
version=1
nRows=7
nColumns=40
inDegrees=yes

Units are S.I. units (second, meters, Newtons, ...)
Angles are in degrees.

endheader
time	pelvis_tilt	pelvis_list	pelvis_rotation	pelvis_tx	pelvis_ty	pelvis_tz	hip_flexion_r	hip_adduction_r	hip_rotation_r	knee_angle_r	knee_angle_r_beta	ankle_angle_r	subtalar_angle_r	mtp_angle_r	hip_flexion_l	hip_adduction_l	hip_rotation_l	knee_angle_l	knee_angle_l_beta	ankle_angle_l	subtalar_angle_l	mtp_angle_l	lumbar_extension	lumbar_bending	lumbar_rotation	arm_flex_r	arm_add_r	arm_rot_r	elbow_flex_r	pro_sup_r	wrist_flex_r	wrist_dev_r	arm_flex_l	arm_add_l	arm_rot_l	elbow_flex_l	pro_sup_l	wrist_flex_l	wrist_dev_l
      0.00000000	     -5.91156072	     -5.20098649	    -13.32205507	     -1.43851053	      0.88959937	     -1.03738479	     22.21924393	      7.47858526	     -7.71118859	    -34.48568105	     -0.60188868	      7.44208995	    -12.38716384	      6.81131760	     -2.40490086	      5.85363739	     15.07760425	    -13.11873613	     -0.22896514	     18.43225210	     -7.28945174	     15.84063271	     -5.28705446	      7.76989360	     -4.01381725	      1.11982921	    -13.10884040	      6.57249844	      8.15210912	     89.95437384	      0.00000000	      0.00000000	     19.81221136	     17.44409385	    -10.22769847	     23.73670406	     89.95437384	      0.00000000	      0.00000000
      0.01000000	     -5.96151673	     -5.15328796	    -13.03076946	     -1.43602864	      0.88923411	     -1.03883274	     22.92875775	      7.39776035	     -7.67893734	    -34.34393074	     -0.59941467	      7.30184597	    -12.07066687	      6.71917202	     -2.45294284	      5.70072938	     15.10807076	    -13.25568993	     -0.23135543	     18.27065943	     -7.10675201	     15.58884260	     -5.33943898	      7.68877719	     -4.26119232	      0.45630629	    -12.94627209	      6.56884065	      8.18856047	     89.95437384	      0.00000000	      0.00000000	     20.50172046	     17.27943312	    -10.14169310	     24.49755432	     89.95437384	      0.00000000	      0.00000000
      0.02000000	     -6.17749182	     -5.26684288	    -12.87157226	     -1.43266553	      0.88876128	     -1.04038214	     23.48143104	      7.44870681	     -7.97107639	    -33.63384840	     -0.58702139	      7.02129724	    -11.90512320	      6.75015872	     -2.65659158	      5.68845803	     15.05716245	    -12.86255853	     -0.22449400	     18.63410253	     -7.30795884	     15.49567681	     -5.11078322	      7.88864618	     -4.30785399	     -0.27988012	    -12.88050374	      6.46930183	      8.06359480	     89.95437384	      0.00000000	      0.00000000	     20.94503884	     16.91188691	    -10.13857223	     25.31162505	     89.95437384	      0.00000000	      0.00000000
      0.03000000	     -6.21275570	     -5.21556846	    -12.53769284	     -1.43029558	      0.88842350	     -1.04177430	     24.21285275	      7.34665527	     -7.91867762	    -33.44637977	     -0.58374945	      6.78324484	    -11.54152728	      6.66197712	     -2.65922423	      5.56768712	     15.02704465	    -13.00232345	     -0.22693335	     18.42996346	     -7.15180143	     15.24438952	     -5.22976572	      7.80452537	     -4.51714899	     -0.88014448	    -12.67093828	      6.43550318	      8.21693483	     89.95437384	      0.00000000	      0.00000000	     21.57755711	     16.69779055	    -10.04920326	     26.15741758	     89.95437384	      0.00000000	      0.00000000
      0.04000000	     -6.21393051	     -5.69307611	    -12.17985390	     -1.42619695	      0.88846992	     -1.04270562	     24.18161102	      7.75428162	     -8.28095126	    -32.15251962	     -0.56116733	      5.72538051	    -11.20819692	      6.84988444	     -3.16123513	      5.99842580	     14.83574770	    -12.70773144	     -0.22179175	     18.74567994	     -7.89129107	     15.71698254	     -5.38982882	      8.39369398	     -5.15104582	     -1.22411188	    -12.47012947	      5.82829060	      8.12334287	     89.95437384	      0.00000000	      0.00000000	     21.16441745	     16.72883283	     -9.41823082	     28.15173332	     89.95437384	      0.00000000	      0.00000000
      0.05000000	     -6.32937213	     -5.59663494	    -11.95483887	     -1.42326037	      0.88786880	     -1.04419928	     24.91174834	      7.57830996	     -8.33846531	    -31.73556245	     -0.55389005	      5.54631929	    -10.89187242	      6.78365667	     -3.18987931	      5.80905619	     14.82449711	    -12.71518791	     -0.22192189	     18.69351148	     -7.87397467	     15.53797933	     -5.36104053	      8.34178758	     -5.20012712	     -1.80496532	    -12.28928042	      5.76353446	      8.19946279	     89.95437384	      0.00000000	      0.00000000	     21.63687239	     16.36400943	     -9.35556119	     28.98711856	     89.95437384	      0.00000000	      0.00000000
      0.06000000	     -6.37985490	     -5.57698473	    -11.69571149	     -1.41995743	      0.88750136	     -1.04534385	     25.39909143	      7.45866978	     -8.51697569	    -31.02821781	     -0.54154456	      5.00617799	    -10.22838185	      6.72204756	     -3.16216678	      5.68279074	     15.14339879	    -12.95698613	     -0.22614207	     18.68121590	     -7.77701940	     15.38935554	     -5.38395793	      8.30104946	     -5.23686887	     -2.41955962	    -12.05485578	      5.58813986	      8.42570056	     89.95437384	      0.00000000	      0.00000000	     21.96155098	     16.02392263	     -9.26485466	     30.01783193	     89.95437384	      0.00000000	      0.00000000
